<?xml version="1.0" encoding="UTF-8" standalone="no"?>
<svg
   xmlns:dc="http://purl.org/dc/elements/1.1/"
   xmlns:cc="http://creativecommons.org/ns#"
   xmlns:rdf="http://www.w3.org/1999/02/22-rdf-syntax-ns#"
   xmlns:svg="http://www.w3.org/2000/svg"
   xmlns="http://www.w3.org/2000/svg"
   xmlns:sodipodi="http://sodipodi.sourceforge.net/DTD/sodipodi-0.dtd"
   xmlns:inkscape="http://www.inkscape.org/namespaces/inkscape"
   width="6.3525801mm"
   height="10.499873mm"
   viewBox="0 0 6.3525801 10.499873"
   version="1.1"
   id="svg8"
   sodipodi:docname="MarkerRestaurant.svg"
   inkscape:version="1.0.2 (e86c870, 2021-01-15)">
  <defs
     id="defs2" />
  <sodipodi:namedview
     id="base"
     pagecolor="#ffffff"
     bordercolor="#666666"
     borderopacity="1.0"
     inkscape:pageopacity="0.0"
     inkscape:pageshadow="2"
     inkscape:zoom="5.6568543"
     inkscape:cx="6.4903735"
     inkscape:cy="36.622006"
     inkscape:document-units="mm"
     inkscape:current-layer="g4577"
     showgrid="false"
     inkscape:window-width="1920"
     inkscape:window-height="1015"
     inkscape:window-x="1680"
     inkscape:window-y="0"
     inkscape:window-maximized="1"
     showguides="true"
     inkscape:document-rotation="0">
    <inkscape:grid
       type="xygrid"
       id="grid27"
       originx="-108.51964"
       originy="-143.08106" />
  </sodipodi:namedview>
  <metadata
     id="metadata5">
    <rdf:RDF>
      <cc:Work
         rdf:about="">
        <dc:format>image/svg+xml</dc:format>
        <dc:type
           rdf:resource="http://purl.org/dc/dcmitype/StillImage" />
        <dc:title></dc:title>
      </cc:Work>
    </rdf:RDF>
  </metadata>
  <g
     inkscape:label="Layer 1"
     inkscape:groupmode="layer"
     id="layer1"
     transform="translate(-108.51965,-143.41907)">
    <g
       id="g4577"
       clip-path="none"
       transform="translate(0.67843333,-1.89914)">
      <path
         id="path37-7"
         style="opacity:1;fill:#d8220e;fill-opacity:1;stroke:#781308;stroke-width:0.26083413px;stroke-linecap:butt;stroke-linejoin:miter;stroke-opacity:1"
         d="m 109.12365,152.05539 c 3.40545,4.83101 0.46165,4.83083 3.70788,0.073 1.48007,-2.09452 2.37754,-6.68758 -1.83954,-6.67975 -3.87571,0.007 -3.45584,4.49008 -1.86834,6.60673 z"
         inkscape:connector-curvature="0"
         sodipodi:nodetypes="ccscc" />
      <path
         style="fill:#ffffff;fill-opacity:1;stroke:none;stroke-width:0.05;stroke-linecap:butt;stroke-linejoin:round;stroke-miterlimit:4;stroke-dasharray:none;stroke-opacity:1"
         d="m 110.00015,150.80735 c -0.13006,-0.008 -0.21057,-0.07 -0.21663,-0.21497 l 3.1e-4,-1.72889 c -0.24419,-0.19127 -0.3332,-0.34154 -0.34753,-0.57911 -0.009,-0.40129 0.005,-0.90339 -0.003,-1.30468 0.075,0.002 0.14854,-0.003 0.22351,-9.9e-4 l -0.005,1.02464 c -4.7e-4,0.0806 0.0502,0.11331 0.10914,0.11331 0.0708,0 0.12855,-0.0327 0.12894,-0.11331 0.006,-0.3187 0.009,-0.70767 0.005,-1.02297 0.0595,0.004 0.13856,-9.2e-4 0.19816,0.003 0.007,0.28884 -0.004,0.7378 0.009,1.01997 10e-4,0.0806 0.0521,0.11331 0.11612,0.11331 0.0661,0 0.11561,-0.0327 0.1162,-0.1161 -0.009,-0.30868 0.002,-0.72108 0.002,-1.02517 0.0772,-0.002 0.14626,0.006 0.22343,0.004 l -0.008,1.32787 c -0.048,0.30979 -0.16702,0.4079 -0.32577,0.56224 -0.003,0.57051 -0.009,1.1559 -0.0117,1.72641 -0.002,0.12484 -0.096,0.21002 -0.21511,0.21086 z"
         id="path873"
         sodipodi:nodetypes="ccccccccccccccccccccc" />
      <path
         style="fill:#ffffff;fill-opacity:1;stroke:none;stroke-width:0.05;stroke-linecap:butt;stroke-linejoin:round;stroke-miterlimit:4;stroke-dasharray:none;stroke-opacity:1"
         d="m 112.40425,150.58134 c 0.007,-1.18394 0.006,-2.44057 0.0128,-3.6245 -0.13269,-0.0309 -0.77855,0.60934 -0.76047,1.52136 0.0129,0.141 -0.0142,0.43946 0.31447,0.75785 0.007,0.45692 0.003,0.90897 0.01,1.36588 0.005,0.0854 0.0484,0.16714 0.20836,0.18168 0.12281,-0.0161 0.21202,-0.0897 0.21488,-0.20227 z"
         id="path875"
         sodipodi:nodetypes="ccccccc" />
    </g>
  </g>
</svg>
